<svg xmlns="http://www.w3.org/2000/svg" width="1024" height="1024" viewBox="0 0 1024 1024" fill="none">
  <defs>
    <radialGradient id="bgGlow" cx="50%" cy="42%" r="72%">
      <stop offset="0%" stop-color="#7b5cff" stop-opacity="0.22"/>
      <stop offset="55%" stop-color="#21f1a8" stop-opacity="0.08"/>
      <stop offset="100%" stop-color="#0f0f10" stop-opacity="0"/>
    </radialGradient>
    <linearGradient id="rim" x1="0%" y1="0%" x2="100%" y2="100%">
      <stop offset="0%" stop-color="#ffffff"/>
      <stop offset="100%" stop-color="#d4d0e8"/>
    </linearGradient>
    <linearGradient id="hub" x1="30%" y1="20%" x2="70%" y2="80%">
      <stop offset="0%" stop-color="#21f1a8"/>
      <stop offset="100%" stop-color="#7b5cff"/>
    </linearGradient>
  </defs>

  <rect width="1024" height="1024" rx="224" fill="#0f0f10"/>
  <rect width="1024" height="1024" rx="224" fill="url(#bgGlow)"/>

  <g transform="translate(512 512)">
    <circle r="300" fill="none" stroke="url(#rim)" stroke-width="44" stroke-linecap="round"/>

    <g stroke="#ffffff" stroke-width="20" stroke-linecap="round" opacity="0.92">
      <line y1="-248" y2="-72"/>
      <line y1="-248" y2="-72" transform="rotate(30)"/>
      <line y1="-248" y2="-72" transform="rotate(60)"/>
      <line y1="-248" y2="-72" transform="rotate(90)"/>
      <line y1="-248" y2="-72" transform="rotate(120)"/>
      <line y1="-248" y2="-72" transform="rotate(150)"/>
      <line y1="-248" y2="-72" transform="rotate(180)"/>
      <line y1="-248" y2="-72" transform="rotate(210)"/>
      <line y1="-248" y2="-72" transform="rotate(240)"/>
      <line y1="-248" y2="-72" transform="rotate(270)"/>
      <line y1="-248" y2="-72" transform="rotate(300)"/>
      <line y1="-248" y2="-72" transform="rotate(330)"/>
    </g>

    <circle r="88" fill="none" stroke="#21f1a8" stroke-width="16" opacity="0.85"/>

    <circle r="52" fill="url(#hub)"/>
    <circle r="18" fill="#0f0f10" opacity="0.55"/>

    <circle cx="0" cy="-300" r="14" fill="#21f1a8"/>
  </g>
</svg>
