<svg xmlns="http://www.w3.org/2000/svg" version="1.1" viewBox="863.742 0 275.396 368.47058823529414" width="275.396" height="368.47058823529414">
<style>
  .f { fill: #0f172a; }
  @media (prefers-color-scheme: dark) {
    .f { fill: #f8fafc; }
  }
</style>
<path class="f" transform="translate(1097,35)" d="M0 0 C0.79792969 0.66515625 1.59585937 1.3303125 2.41796875 2.015625 C29.0818692 25.00032058 38.21183974 56.13855573 40.81925964 90.12733841 C41.35981665 98.71887485 41.28526804 107.32894755 41.265625 115.93359375 C41.26697836 118.07048079 41.26892442 120.20736753 41.27142334 122.34425354 C41.27434374 126.78723123 41.27017818 131.2301276 41.26074219 135.6730957 C41.2493567 141.30118773 41.25592146 146.92908869 41.26788712 152.55717373 C41.27519598 156.95959348 41.27277682 161.36196971 41.26763153 165.76439095 C41.26631946 167.83673184 41.26785442 169.90907699 41.27259064 171.98141289 C41.3039222 189.53440339 41.24809262 207.79245855 36.75 224.875 C36.4257605 226.1590271 36.4257605 226.1590271 36.0949707 227.46899414 C28.49947141 256.5376875 12.93202791 279.44186518 -13.21191406 294.95654297 C-21.45385352 299.76621654 -29.59468014 303.42940268 -38.6875 306.25 C-39.42758301 306.48420654 -40.16766602 306.71841309 -40.93017578 306.9597168 C-55.33069126 311.16527048 -70.11194714 312.5073918 -85.05224609 312.39111328 C-87.50024056 312.37499842 -89.94658521 312.39110419 -92.39453125 312.41015625 C-122.13544419 312.44965552 -153.04913841 304.76712926 -176 285 C-176.86625 284.28199219 -177.7325 283.56398438 -178.625 282.82421875 C-202.67744472 262.18164805 -212.81458808 232.34176587 -215.5402832 201.54907227 C-216.29242442 191.34940253 -216.16449333 181.12408016 -216.16796875 170.90234375 C-216.1711902 168.65955078 -216.1745549 166.41675801 -216.17805481 164.17396545 C-216.18401682 159.48649611 -216.1858978 154.79904513 -216.18530273 150.11157227 C-216.18520142 144.16022088 -216.19883516 138.20898961 -216.21607494 132.25766659 C-216.22729765 127.62713602 -216.2292188 122.99663353 -216.22869301 118.36609077 C-216.22985843 116.17486725 -216.23419734 113.98364264 -216.24202538 111.79243279 C-216.29791052 94.53095407 -216.06186649 77.01024623 -211.75 60.1875 C-211.53384033 59.31988037 -211.31768066 58.45226074 -211.0949707 57.55834961 C-206.46157127 39.667316 -198.40112327 23.76952308 -186 10 C-185.31421875 9.23171875 -184.6284375 8.4634375 -183.921875 7.671875 C-139.60090444 -39.27552344 -48.4025824 -41.41208147 0 0 Z M-94 26 C-93.49920343 35.90156596 -92.99521492 45.80296388 -92.48720646 55.7041626 C-92.25139029 60.30220933 -92.0166535 64.90030577 -91.78442383 69.49853516 C-91.56006349 73.94014723 -91.33281512 78.38160317 -91.10360527 82.82296753 C-91.01687236 84.51328335 -90.93116154 86.20365196 -90.84651375 87.89407349 C-90.72732636 90.27067804 -90.60443042 92.64706504 -90.48071289 95.0234375 C-90.43000137 96.06030449 -90.43000137 96.06030449 -90.37826538 97.11811829 C-90.13003711 101.78692926 -89.62146757 106.36967415 -89 111 C-88.67 111 -88.34 111 -88 111 C-85.82982501 82.6981129 -84.47555308 54.34451704 -83 26 C-86.63 26 -90.26 26 -94 26 Z M-81 26 C-81.52679834 34.73711348 -82.04868945 43.47450313 -82.56460571 52.21226597 C-82.80440759 56.27113045 -83.0457928 60.32988687 -83.29101562 64.38842773 C-83.52835289 68.31748721 -83.76124503 72.24678889 -83.99127197 76.17628288 C-84.07903224 77.66279134 -84.16829703 79.14921189 -84.25921631 80.63553047 C-84.85763447 90.43946644 -85.11195925 100.17640892 -85 110 C-84.67 110 -84.34 110 -84 110 C-82.03987305 99.89998893 -80.08374474 89.79921249 -78.13272858 79.69743729 C-77.22668499 75.00689184 -76.31926215 70.316622 -75.40869141 65.62695312 C-74.53012183 61.10182772 -73.6551699 56.57601658 -72.7827301 52.04970551 C-72.44911149 50.32228387 -72.11418641 48.59511403 -71.77793884 46.86820221 C-71.30749052 44.45087277 -70.84167996 42.03269274 -70.37695312 39.61425781 C-70.23669205 38.89928131 -70.09643097 38.18430481 -69.95191956 37.44766235 C-69.33310162 34.20284923 -69 31.32301801 -69 28 C-74.94 27.01 -74.94 27.01 -81 26 Z M-108 28 C-103.10274215 55.35281951 -98.19418752 82.70176255 -93 110 C-92.67 110 -92.34 110 -92 110 C-91.84234767 100.69937255 -92.3397929 91.45535871 -92.875 82.17578125 C-92.96494904 80.57726014 -93.05462532 78.97872366 -93.14404297 77.38017273 C-93.37806772 73.20936677 -93.61575325 69.03877752 -93.85424805 64.8682251 C-94.09778729 60.5978236 -94.33779988 56.32722399 -94.578125 52.05664062 C-95.04866649 43.7042312 -95.52308243 35.35204778 -96 27 C-100.16468745 26.96075677 -103.94150823 27.01612321 -108 28 Z M-66 29 C-68.4431916 38.25415277 -70.37278414 47.58055422 -72.171875 56.9765625 C-72.46134593 58.47921649 -72.75091895 59.98185081 -73.04058838 61.48446655 C-73.64126497 64.60523934 -74.23921074 67.72652095 -74.83544922 70.84814453 C-75.60088066 74.8531873 -76.37561688 78.85637056 -77.15259933 82.85918617 C-77.75076633 85.94829412 -78.3429122 89.0385332 -78.93332672 92.12913132 C-79.21667263 93.60717223 -79.50218009 95.08480046 -79.78987885 96.56200027 C-80.18882325 98.61391654 -80.57936805 100.66725811 -80.96777344 102.72119141 C-81.19188904 103.88856842 -81.41600464 105.05594543 -81.64691162 106.25869751 C-82.25362135 108.95759943 -82.25362135 108.95759943 -81 111 C-77.5230083 102.69907111 -74.61976562 94.21969522 -71.76171875 85.69140625 C-71.52142252 84.97617231 -71.28112629 84.26093838 -71.03354836 83.52403069 C-69.76711952 79.7544756 -68.50402584 75.98382365 -67.24389648 72.2121582 C-65.94283887 68.32004861 -64.63064451 64.43178787 -63.31595135 60.5442667 C-62.30368346 57.54461826 -61.29942146 54.54233486 -60.29737282 51.53925896 C-59.81670651 50.10331494 -59.33303789 48.6683723 -58.8463192 47.23446846 C-58.1698994 45.23919234 -57.50485344 43.24047008 -56.8425293 41.24047852 C-56.46154587 40.10481949 -56.08056244 38.96916046 -55.68803406 37.79908752 C-54.72227721 34.94393788 -54.72227721 34.94393788 -56 32 C-58.32891096 30.97299556 -58.32891096 30.97299556 -61.0625 30.3125 C-62.70833333 29.875 -64.35416667 29.4375 -66 29 Z M-116.625 31 C-117.85089844 31.556875 -117.85089844 31.556875 -119.1015625 32.125 C-119.72804688 32.41375 -120.35453125 32.7025 -121 33 C-113.45719023 56.37536017 -105.81264652 79.71337807 -98 103 C-96.61060491 99.15612272 -97.33286396 96.0755013 -98.07983398 92.12011719 C-98.20648437 91.43678314 -98.33313477 90.7534491 -98.46362305 90.04940796 C-98.88314138 87.79698746 -99.31454157 85.54701809 -99.74609375 83.296875 C-100.03972108 81.73331247 -100.3326035 80.16960988 -100.62477112 78.60577393 C-101.39495597 74.49441978 -102.17524185 70.38504559 -102.9576416 66.27600098 C-103.75455934 62.08098219 -104.54191631 57.88417099 -105.33007812 53.6875 C-106.87736341 45.45654822 -108.43532364 37.22766342 -110 29 C-112.60526888 29 -114.26036729 29.91902505 -116.625 31 Z M-129.0625 37.5 C-129.98160156 38.1496875 -130.90070313 38.799375 -131.84765625 39.46875 C-132.55792969 39.9740625 -133.26820313 40.479375 -134 41 C-132.61712477 45.46794387 -130.85941516 49.53915117 -128.77539062 53.72387695 C-128.45644333 54.36688248 -128.13749603 55.009888 -127.80888367 55.67237854 C-126.76210367 57.77974776 -125.70948151 59.88412985 -124.65625 61.98828125 C-123.92385577 63.45695885 -123.19164002 64.92572547 -122.45959473 66.39457703 C-120.92907027 69.46306757 -119.3954753 72.52999982 -117.85986328 75.59594727 C-115.88919923 79.53145617 -113.92771012 83.47145919 -111.96863556 87.41274738 C-110.46126232 90.44218973 -108.94838756 93.46885855 -107.43388367 96.49474144 C-106.70795087 97.94712143 -105.98391577 99.4004515 -105.26179504 100.85473061 C-104.25508677 102.88042545 -103.24088058 104.90218551 -102.22460938 106.9230957 C-101.64884155 108.07526077 -101.07307373 109.22742584 -100.4798584 110.414505 C-99.25896178 113.10139833 -99.25896178 113.10139833 -97 114 C-99.34822387 104.79952428 -102.30416186 95.82696412 -105.32421875 86.83203125 C-105.83586075 85.30084402 -106.34723406 83.76956698 -106.85835266 82.23820496 C-108.19220688 78.24421067 -109.52966272 74.25143191 -110.86791992 70.25891113 C-112.23772831 66.17009227 -113.60406119 62.08011244 -114.97070312 57.99023438 C-117.64377075 49.99236122 -120.32065145 41.99577118 -123 34 C-125.15073502 34 -127.40589707 36.32569919 -129.0625 37.5 Z M-53 35 C-56.26311354 44.74306945 -59.52301639 54.48720652 -62.77878571 64.23273277 C-64.2905511 68.75757667 -65.80343427 73.28204048 -67.31884766 77.80566406 C-68.78033071 82.16843657 -70.23890925 86.53217003 -71.69544983 90.896595 C-72.2526085 92.56436595 -72.81082593 94.23178356 -73.37010193 95.89884567 C-74.15120466 98.227708 -74.92858704 100.55778032 -75.70507812 102.88818359 C-76.05573082 103.92935585 -76.05573082 103.92935585 -76.41346741 104.99156189 C-77.60169344 108.42182885 -77.60169344 108.42182885 -78 112 C-77.34 112 -76.68 112 -76 112 C-71.53557742 103.21007576 -67.08407941 94.41374118 -62.64903927 85.60895157 C-60.58933902 81.52088476 -58.52522655 77.43517363 -56.45092773 73.35449219 C-54.44988742 69.41752565 -52.4605744 65.47483947 -50.47931099 61.52788544 C-49.72075073 60.02186507 -48.95796353 58.51796619 -48.19093132 57.01624298 C-47.11859628 54.9150244 -46.0614385 52.80681494 -45.00756836 50.69628906 C-44.68604797 50.07481995 -44.36452759 49.45335083 -44.03326416 48.81304932 C-42.79196966 46.29449986 -41.95250977 44.50942789 -42.21681213 41.67425537 C-43.23334132 39.50117593 -44.40248851 38.59829899 -46.375 37.25 C-46.98085937 36.82203125 -47.58671875 36.3940625 -48.2109375 35.953125 C-50.10343075 34.76490594 -50.10343075 34.76490594 -53 35 Z M-137 44 C-139.64 47.3 -142.28 50.6 -145 54 C-143.53563755 57.66090612 -142.60226479 59.82354439 -140.3828125 62.828125 C-139.86460937 63.53646484 -139.34640625 64.24480469 -138.8125 64.97460938 C-138.255625 65.72548828 -137.69875 66.47636719 -137.125 67.25 C-135.93926955 68.8691808 -134.75439269 70.488987 -133.5703125 72.109375 C-132.9712207 72.92728516 -132.37212891 73.74519531 -131.75488281 74.58789062 C-129.12925086 78.19685607 -126.56331913 81.84664724 -124 85.5 C-119.68986475 91.62079555 -115.36144433 97.72813748 -111 103.8125 C-110.45988281 104.57175781 -109.91976562 105.33101562 -109.36328125 106.11328125 C-106.78991732 109.69135906 -104.26688201 113.00797585 -101 116 C-101.63240029 111.68091917 -103.16763035 108.28458113 -105.11108398 104.38964844 C-105.42988525 103.74678894 -105.74868652 103.10392944 -106.07714844 102.44158936 C-107.12746565 100.3278021 -108.18645197 98.21850137 -109.24609375 96.109375 C-109.98009265 94.63935583 -110.71373523 93.16915869 -111.44703674 91.6987915 C-112.98236193 88.62372474 -114.52199471 85.55086417 -116.06469727 82.47949219 C-118.04461477 78.53679048 -120.01366466 74.58877702 -121.97955227 70.63906479 C-123.49105205 67.60524509 -125.00823616 64.5742967 -126.52717781 61.54419708 C-127.2557922 60.08897301 -127.9826172 58.63285161 -128.70763969 57.17583466 C-129.7191662 55.14519205 -130.73826586 53.11853649 -131.75952148 51.09277344 C-132.33830551 49.93759216 -132.91708954 48.78241089 -133.51341248 47.59222412 C-134.73993942 44.89944103 -134.73993942 44.89944103 -137 44 Z M-40 44 C-51.22 66.44 -62.44 88.88 -74 112 C-73.34 112.66 -72.68 113.32 -72 114 C-71.67427002 113.54898926 -71.34854004 113.09797852 -71.01293945 112.63330078 C-70.02158061 111.26065008 -69.03020526 109.88801129 -68.03881836 108.51538086 C-66.87154498 106.89909269 -65.70439331 105.28271661 -64.53735352 103.66625977 C-61.5823616 99.57366904 -58.62584311 95.48221236 -55.6640625 91.39453125 C-49.67763327 83.12768637 -43.73459227 74.8333025 -37.86889648 66.48022461 C-37.40427002 65.81901611 -36.93964355 65.15780762 -36.4609375 64.4765625 C-36.03393555 63.86200195 -35.60693359 63.24744141 -35.16699219 62.61425781 C-34 61 -34 61 -32.1015625 58.8359375 C-30.77367237 57.001837 -30.77367237 57.001837 -31.09375 54.51953125 C-32.13365442 51.62841767 -33.42657876 49.94362024 -35.5 47.6875 C-36.1290625 46.99011719 -36.758125 46.29273437 -37.40625 45.57421875 C-38.74521966 43.88287767 -38.74521966 43.88287767 -40 44 Z M-147 58 C-147.87042243 59.88842514 -148.72075474 61.78611902 -149.5625 63.6875 C-150.03816406 64.74324219 -150.51382813 65.79898438 -151.00390625 66.88671875 C-152.1110192 70.34698941 -152.08349431 71.59000976 -151 75 C-149.18162934 77.38360923 -149.18162934 77.38360923 -146.80859375 79.6171875 C-145.51405273 80.89916016 -145.51405273 80.89916016 -144.19335938 82.20703125 C-143.28392578 83.08746094 -142.37449219 83.96789062 -141.4375 84.875 C-140.55513672 85.74769531 -139.67277344 86.62039062 -138.76367188 87.51953125 C-134.90103805 91.31650316 -131.00987887 95.0426536 -126.90234375 98.57421875 C-121.56690707 103.16537989 -116.73243595 108.2568962 -111.828125 113.29882812 C-110.74144531 114.40194336 -110.74144531 114.40194336 -109.6328125 115.52734375 C-108.65658936 116.52882446 -108.65658936 116.52882446 -107.66064453 117.55053711 C-106.11624509 119.21919294 -106.11624509 119.21919294 -104 119 C-105.55533786 114.21574437 -108.26281783 110.78435023 -111.3125 106.875 C-115.90868179 100.87536124 -120.27437334 94.76576023 -124.5 88.5 C-131.5840618 78.02104766 -139.04939511 67.84004276 -147 58 Z M-29 58 C-34.76408031 65.24738766 -40.19173058 72.63970822 -45.375 80.3125 C-50.48515287 87.87510211 -55.81228964 95.22542693 -61.34375 102.484375 C-62.22979326 103.65577631 -63.11520929 104.82765231 -64 106 C-64.47953125 106.62712891 -64.9590625 107.25425781 -65.453125 107.90039062 C-68.30139008 111.54725668 -68.30139008 111.54725668 -69 116 C-61.01152336 112.3588561 -54.88182703 105.02430959 -48.78125 98.87890625 C-47.66623108 97.76176491 -47.66623108 97.76176491 -46.52868652 96.62205505 C-44.18340699 94.27123255 -41.84165164 91.91693569 -39.5 89.5625 C-37.89867039 87.95614801 -36.29711002 86.35002603 -34.6953125 84.74414062 C-30.79420527 80.83208015 -26.8959758 76.91717048 -23 73 C-23.42611351 71.24719267 -23.86639267 69.49782565 -24.3125 67.75 C-24.55613281 66.77546875 -24.79976562 65.8009375 -25.05078125 64.796875 C-25.99652356 62.01024335 -27.10708713 60.22695632 -29 58 Z M-23 76 C-23.45021515 76.45243576 -23.9004303 76.90487152 -24.36428833 77.37101746 C-29.0659696 82.09488451 -33.7712165 86.81517848 -38.47851562 91.53344727 C-40.23300713 93.29295623 -41.9865986 95.05336314 -43.73925781 96.81469727 C-46.26389196 99.3515104 -48.79178382 101.88503813 -51.3203125 104.41796875 C-52.09867462 105.20149216 -52.87703674 105.98501556 -53.6789856 106.7922821 C-57.63702174 110.75072207 -61.62592294 114.50499684 -66 118 C-65.01 118.99 -64.02 119.98 -63 121 C-48.62497487 111.73031109 -34.31031674 102.3691233 -20 93 C-20.11402064 90.72858891 -20.24158505 88.45785448 -20.375 86.1875 C-20.47941406 84.29064453 -20.47941406 84.29064453 -20.5859375 82.35546875 C-20.76102939 78.87244766 -20.76102939 78.87244766 -23 76 Z M-153 77 C-153.75808046 79.9849418 -154.40070796 82.97937481 -155 86 C-155.37125 87.794375 -155.37125 87.794375 -155.75 89.625 C-154.84038856 93.7182515 -154.05001491 93.99335662 -150.6640625 96.24609375 C-149.30087891 97.16165039 -149.30087891 97.16165039 -147.91015625 98.09570312 C-146.94980469 98.72412109 -145.98945312 99.35253906 -145 100 C-144.08089844 100.60779297 -143.16179687 101.21558594 -142.21484375 101.84179688 C-139.35947411 103.71949114 -136.49414836 105.58093588 -133.625 107.4375 C-122.17261049 114.85239964 -122.17261049 114.85239964 -117.9453125 117.78515625 C-116.89085937 118.51605469 -115.83640625 119.24695313 -114.75 120 C-113.87859375 120.61875 -113.0071875 121.2375 -112.109375 121.875 C-111.41328125 122.24625 -110.7171875 122.6175 -110 123 C-109.01 122.67 -108.02 122.34 -107 122 C-111.68570406 116.37116701 -116.68479552 111.16421013 -121.875 106 C-122.63941406 105.23171875 -123.40382813 104.4634375 -124.19140625 103.671875 C-128.36607965 99.50428933 -132.63235077 95.52649242 -137.10253906 91.67919922 C-140.18931131 88.94749315 -143.058109 86.00956176 -145.9375 83.0625 C-147.93792506 81.01727259 -149.95274717 78.99915291 -152 77 C-152.33 77 -152.66 77 -153 77 Z M-27.0546875 99.91015625 C-27.97896042 100.51784096 -27.97896042 100.51784096 -28.92190552 101.13780212 C-30.90769274 102.44388879 -32.8914404 103.75303322 -34.875 105.0625 C-37.45496873 106.76287551 -40.03581185 108.46191746 -42.6171875 110.16015625 C-43.2444574 110.57302887 -43.87172729 110.98590149 -44.51800537 111.4112854 C-49.97625992 114.99782054 -55.47524345 118.51662589 -61 122 C-60.67 123.32 -60.34 124.64 -60 126 C-54.97581521 125.36424474 -50.65470895 123.89113714 -45.9765625 122.05859375 C-45.23038666 121.77146011 -44.48421082 121.48432648 -43.71542358 121.18849182 C-41.34985577 120.27680874 -38.9874255 119.35729089 -36.625 118.4375 C-35.01452424 117.81523393 -33.40384908 117.19348364 -31.79296875 116.57226562 C-27.85923986 115.05508595 -23.9298574 113.52733377 -20 112 C-20 106.72 -20 101.44 -20 96 C-22.38641691 96 -25.06223089 98.59124911 -27.0546875 99.91015625 Z M-155 97 C-155 101.95 -155 106.9 -155 112 C-144.36871245 116.33553592 -133.70082762 120.56453907 -122.9375 124.5625 C-121.51993408 125.10003906 -121.51993408 125.10003906 -120.07373047 125.6484375 C-119.19217285 125.97199219 -118.31061523 126.29554688 -117.40234375 126.62890625 C-116.62366943 126.91838135 -115.84499512 127.20785645 -115.04272461 127.50610352 C-112.82000461 128.23462515 -112.82000461 128.23462515 -110 127 C-110 126.34 -110 125.68 -110 125 C-111.85556795 123.54597384 -111.85556795 123.54597384 -114.28515625 122.09375 C-115.20167969 121.51931152 -116.11820313 120.94487305 -117.0625 120.35302734 C-118.0525 119.74152832 -119.0425 119.1300293 -120.0625 118.5 C-122.08543894 117.23305292 -124.10757143 115.96481729 -126.12890625 114.6953125 C-127.12809082 114.06915039 -128.12727539 113.44298828 -129.15673828 112.79785156 C-132.97758947 110.38185052 -136.74765166 107.89572096 -140.5 105.375 C-141.07886963 104.98634766 -141.65773926 104.59769531 -142.25415039 104.19726562 C-144.94152925 102.38952976 -147.61892163 100.57117573 -150.28125 98.7265625 C-152.74461099 96.82130318 -152.74461099 96.82130318 -155 97 Z M-97 104 C-96 106 -96 106 -96 106 Z M-155 115 C-155 119.62 -155 124.24 -155 129 C-145.20328786 130.51965545 -135.40787789 132.01582228 -125.5625 133.1875 C-124.8722876 133.27112793 -124.1820752 133.35475586 -123.47094727 133.44091797 C-119.96192262 133.84595619 -116.53230688 134.08847782 -113 134 C-113 132.68 -113 131.36 -113 130 C-118.65842453 127.85958992 -124.31843615 125.72345295 -129.97998047 123.59130859 C-131.90685864 122.86495125 -133.83329311 122.13741576 -135.75927734 121.40869141 C-138.52326278 120.36312821 -141.28880165 119.32177375 -144.0546875 118.28125 C-144.9193161 117.95314331 -145.7839447 117.62503662 -146.67477417 117.2869873 C-147.47545319 116.98667603 -148.2761322 116.68636475 -149.10107422 116.37695312 C-149.8072287 116.11047974 -150.51338318 115.84400635 -151.24093628 115.56945801 C-153.00897268 114.89733626 -153.00897268 114.89733626 -155 115 Z M-37.04956055 120.27954102 C-38.72359774 120.88439328 -40.40071982 121.48077536 -42.08081055 122.06860352 C-44.50017713 122.91558365 -46.90864728 123.78861453 -49.31640625 124.66796875 C-50.07055313 124.92652145 -50.82470001 125.18507416 -51.60169983 125.45146179 C-53.95826035 126.28084373 -53.95826035 126.28084373 -57 128 C-58.10608067 130.58740917 -58.10608067 130.58740917 -58 133 C-49.83891474 133.2866682 -41.99879136 132.17685968 -33.9375 131 C-32.58146152 130.80672033 -31.2253421 130.61400763 -29.86914062 130.421875 C-26.57863106 129.95347506 -23.28920147 129.47749911 -20 129 C-20 124.38 -20 119.76 -20 115 C-25.55070736 115 -31.84274425 118.38545464 -37.04956055 120.27954102 Z M-155 132 C-155 136.29 -155 140.58 -155 145 C-145.31459794 144.58694609 -135.74479846 143.69527867 -126.125 142.5 C-125.06087891 142.36940186 -123.99675781 142.23880371 -122.90039062 142.10424805 C-121.90458984 141.97703369 -120.90878906 141.84981934 -119.8828125 141.71875 C-118.54307373 141.54762695 -118.54307373 141.54762695 -117.17626953 141.37304688 C-114.96183035 141.10161091 -114.96183035 141.10161091 -113 140 C-113 139.01 -113 138.02 -113 137 C-122.61342896 135.52252629 -132.2270233 134.0485315 -141.875 132.8125 C-143.10992188 132.65394531 -144.34484375 132.49539062 -145.6171875 132.33203125 C-149.4287062 131.90231698 -149.4287062 131.90231698 -155 132 Z M-33.3671875 132.875 C-34.04677521 132.96378418 -34.72636292 133.05256836 -35.42654419 133.14404297 C-37.57652175 133.42575968 -39.72575 133.71279081 -41.875 134 C-43.3410994 134.19306126 -44.80724486 134.38577309 -46.2734375 134.578125 C-49.84949983 135.04804419 -53.42491055 135.52272905 -57 136 C-57 137.65 -57 139.3 -57 141 C-53.83358551 141.48084266 -50.66682407 141.95936294 -47.5 142.4375 C-46.613125 142.57220703 -45.72625 142.70691406 -44.8125 142.84570312 C-34.45484166 144.52859491 -34.45484166 144.52859491 -24 145.0625 C-22.68 145.041875 -21.36 145.02125 -20 145 C-20 140.71 -20 136.42 -20 132 C-24.65440672 132 -28.78609631 132.26923588 -33.3671875 132.875 Z M-124.82421875 144.09375 C-126.11632011 144.26022034 -126.11632011 144.26022034 -127.43452454 144.43005371 C-130.18574903 144.7849277 -132.9366245 145.14243178 -135.6875 145.5 C-137.55271199 145.74105871 -139.41794611 145.98194623 -141.28320312 146.22265625 C-145.85572794 146.81311806 -150.42794147 147.4059389 -155 148 C-155 152.62 -155 157.24 -155 162 C-146.71532564 159.6574369 -138.684865 156.77551151 -130.62866211 153.7565918 C-128.41337327 152.92848104 -126.19412948 152.11161364 -123.97460938 151.29492188 C-122.56485098 150.76890724 -121.15533623 150.24223901 -119.74609375 149.71484375 C-119.08266464 149.47209213 -118.41923553 149.22934052 -117.73570251 148.97923279 C-114.18907052 147.81626121 -114.18907052 147.81626121 -112 145 C-112.495 144.01 -112.495 144.01 -113 143 C-116.98860734 143 -120.87641461 143.57826491 -124.82421875 144.09375 Z M-57 144 C-57.33 145.32 -57.66 146.64 -58 148 C-50.6564511 151.38344026 -43.16829947 154.34418251 -35.625 157.25 C-34.45066406 157.70890625 -33.27632812 158.1678125 -32.06640625 158.640625 C-30.94363281 159.07375 -29.82085938 159.506875 -28.6640625 159.953125 C-27.64779785 160.34661133 -26.6315332 160.74009766 -25.58447266 161.14550781 C-22.97895215 162.15695642 -22.97895215 162.15695642 -20 162 C-20 157.38 -20 152.76 -20 148 C-24.30458836 147.42673734 -28.60936008 146.85588382 -32.91503906 146.29101562 C-34.37778793 146.09839558 -35.84035705 145.9044052 -37.30273438 145.70898438 C-39.41229511 145.4273264 -41.52246643 145.15070443 -43.6328125 144.875 C-44.90012207 144.70742187 -46.16743164 144.53984375 -47.47314453 144.3671875 C-50.68307056 144.03299612 -53.77637247 143.93058137 -57 144 Z M-117.08251953 150.46875 C-117.92324005 150.78908203 -118.76396057 151.10941406 -119.63015747 151.43945312 C-120.53853363 151.78943359 -121.44690979 152.13941406 -122.3828125 152.5 C-123.31221649 152.85513672 -124.24162048 153.21027344 -125.19918823 153.57617188 C-128.17565918 154.71434001 -131.1503371 155.85711582 -134.125 157 C-136.13920676 157.77113681 -138.15352823 158.54197405 -140.16796875 159.3125 C-145.11331842 161.20485611 -150.05706455 163.10134723 -155 165 C-155 169.95 -155 174.9 -155 180 C-150.77974015 178.31189606 -147.77444299 176.66382888 -144.0625 174.1484375 C-143.50111328 173.77071198 -142.93972656 173.39298645 -142.36132812 173.0038147 C-140.57120857 171.7986001 -138.78531836 170.58731296 -137 169.375 C-134.66891391 167.79612775 -132.33570975 166.22046192 -130 164.6484375 C-129.42693115 164.26266541 -128.8538623 163.87689331 -128.26342773 163.47943115 C-122.28206808 159.47808031 -116.15933877 155.72041455 -110 152 C-110.495 150.515 -110.495 150.515 -111 149 C-113.36513706 149 -114.8718071 149.62153086 -117.08251953 150.46875 Z M-60 151 C-60.33 152.32 -60.66 153.64 -61 155 C-60.41210693 155.3717334 -59.82421387 155.7434668 -59.21850586 156.12646484 C-38.15369176 169.45758562 -38.15369176 169.45758562 -28.57006836 175.97802734 C-25.75864469 177.88077852 -23.05129101 179.47435449 -20 181 C-20 175.72 -20 170.44 -20 165 C-25.2120335 162.99984367 -30.4264896 161.00619099 -35.64331055 159.01855469 C-37.4180827 158.34130696 -39.19217667 157.66227928 -40.96557617 156.98144531 C-43.51305247 156.00378448 -46.06288991 155.03252675 -48.61328125 154.0625 C-49.40712723 153.75626709 -50.20097321 153.45003418 -51.01887512 153.13452148 C-55.38669279 151.47699157 -55.38669279 151.47699157 -60 151 Z M-116.125 158.0625 C-124.01546388 163.37301056 -131.9819385 168.56311307 -139.96533203 173.73266602 C-141.81938523 174.93695799 -143.66794083 176.14977019 -145.51000977 177.37231445 C-147.05639853 178.3831757 -148.62453824 179.36245584 -150.22241211 180.28979492 C-152.41252248 181.54936793 -152.41252248 181.54936793 -155 184 C-155.91696242 187.72280639 -155.91696242 187.72280639 -155.5625 191.6875 C-155.54767578 192.36361328 -155.53285156 193.03972656 -155.51757812 193.73632812 C-155.40355008 197.82211829 -155.40355008 197.82211829 -153 201 C-152.55422607 200.55200546 -152.10845215 200.10401093 -151.64916992 199.6424408 C-146.97965276 194.9506797 -142.30652382 190.26253799 -137.63134766 185.57641602 C-135.89052279 183.83058413 -134.15059922 182.08385302 -132.41162109 180.33618164 C-129.90182134 177.8141565 -127.38872283 175.29545804 -124.875 172.77734375 C-124.10696045 172.00414291 -123.3389209 171.23094208 -122.54760742 170.43431091 C-117.86353118 165.74975668 -113.04710484 161.29137801 -108 157 C-108.495 155.515 -108.495 155.515 -109 154 C-111.39519906 154 -114.1402316 156.71713572 -116.125 158.0625 Z M-64 157 C-64.30528326 159.94166526 -64.30528326 159.94166526 -62.76306152 161.60443115 C-61.89324646 162.46877777 -61.89324646 162.46877777 -61.00585938 163.35058594 C-60.35097534 164.00847107 -59.69609131 164.6663562 -59.0213623 165.34417725 C-57.94344421 166.40357513 -57.94344421 166.40357513 -56.84375 167.484375 C-56.10805786 168.21819397 -55.37236572 168.95201294 -54.61437988 169.70806885 C-53.05076935 171.26494431 -51.48355918 172.8182115 -49.91308594 174.36816406 C-47.53075735 176.71964097 -45.1589764 179.0813308 -42.7890625 181.4453125 C-41.2662397 182.95895201 -39.74282024 184.47199153 -38.21875 185.984375 C-37.51633179 186.68254333 -36.81391357 187.38071167 -36.09020996 188.10003662 C-31.54313701 192.58287473 -26.85270173 196.85012712 -22 201 C-19.07132597 196.60698896 -18.99306486 192.8447903 -19.07617188 187.63183594 C-20.59094402 181.67682788 -24.74112877 179.39845721 -29.72265625 176.40625 C-31.06423171 175.64429515 -32.4066849 174.88388369 -33.75 174.125 C-35.04842536 173.34587991 -36.34403612 172.56204904 -37.63671875 171.7734375 C-40.17811476 170.2290507 -42.73372834 168.71376064 -45.30273438 167.21582031 C-49.89542656 164.50867241 -54.25376264 161.48995797 -58.61816406 158.42919922 C-60.96578464 156.7427392 -60.96578464 156.7427392 -64 157 Z M-106 158 C-107.43230957 159.34795654 -107.43230957 159.34795654 -108.89355469 160.72314453 C-110.23625397 161.98477945 -111.57903414 163.24632828 -112.921875 164.5078125 C-113.63962097 165.18313019 -114.35736694 165.85844788 -115.09686279 166.55422974 C-119.53844373 170.72366471 -124.02299309 174.83813881 -128.55090332 178.91351318 C-131.43369774 181.53036323 -134.26959743 184.19486904 -137.09863281 186.86962891 C-138.55038609 188.2228633 -140.02114053 189.55595743 -141.50878906 190.86962891 C-150.00394578 197.79568195 -150.00394578 197.79568195 -154.23022461 207.36242676 C-153.78073529 212.59832019 -152.11287131 217.22123886 -150 222 C-147.55937627 219.63547373 -145.37495246 217.31776897 -143.44140625 214.5234375 C-142.97992187 213.86214844 -142.5184375 213.20085937 -142.04296875 212.51953125 C-141.55441406 211.81183594 -141.06585937 211.10414063 -140.5625 210.375 C-139.49180028 208.84050708 -138.42015406 207.30667423 -137.34765625 205.7734375 C-136.79609863 204.98420898 -136.24454102 204.19498047 -135.67626953 203.38183594 C-132.98749216 199.56131278 -130.24390595 195.78102478 -127.5 192 C-123.11076164 185.94118677 -118.75371621 179.86107839 -114.4375 173.75 C-113.94894531 173.0590625 -113.46039062 172.368125 -112.95703125 171.65625 C-110.24523044 167.8082198 -107.59297494 163.92911968 -105 160 C-105.495 159.01 -105.495 159.01 -106 158 Z M-103 161 C-109.88202866 170.48708089 -116.72561187 179.9980236 -123.46655273 189.5859375 C-126.65177634 194.10913334 -129.86911902 198.60756878 -133.11303711 203.08886719 C-134.23238149 204.63578472 -135.3491493 206.18457044 -136.46313477 207.73535156 C-138.74661135 210.91169236 -141.04341087 214.05582388 -143.4453125 217.14453125 C-147.12764958 221.63700954 -147.12764958 221.63700954 -147.75 227.125 C-147.1725 228.07375 -146.595 229.0225 -146 230 C-145.40445313 231.05960938 -145.40445313 231.05960938 -144.796875 232.140625 C-143.60975441 234.18590505 -142.4685727 236.14545627 -141 238 C-140.34 238 -139.68 238 -139 238 C-134.14680275 228.40929898 -129.30432773 218.81326981 -124.47558498 209.21023083 C-122.23322588 204.75164013 -119.9871727 200.2949915 -117.73266602 195.8425293 C-115.55833611 191.54807352 -113.39372627 187.2488493 -111.23585701 182.94610023 C-110.40960284 181.3028524 -109.57982187 179.66137315 -108.74651909 178.02168846 C-107.58269849 175.73017945 -106.43141586 173.43278316 -105.28295898 171.13354492 C-104.93338638 170.4523761 -104.58381378 169.77120728 -104.22364807 169.06939697 C-102.19006643 165.19537937 -102.19006643 165.19537937 -103 161 Z M-68 161 C-68 164.39916168 -67.53833636 164.99468909 -65.578125 167.6328125 C-64.79115234 168.70499023 -64.79115234 168.70499023 -63.98828125 169.79882812 C-63.12783203 170.9502832 -63.12783203 170.9502832 -62.25 172.125 C-61.04600454 173.76238113 -59.84289907 175.400417 -58.640625 177.0390625 C-58.02896484 177.86954102 -57.41730469 178.70001953 -56.78710938 179.55566406 C-54.14402483 183.17076822 -51.5704955 186.83311124 -49 190.5 C-44.69015138 196.62099403 -40.36144184 202.72814095 -36 208.8125 C-35.45988281 209.57175781 -34.91976563 210.33101562 -34.36328125 211.11328125 C-31.78991732 214.69135906 -29.26688201 218.00797585 -26 221 C-23.32634725 215.65269449 -20.93284175 210.05960294 -22 204 C-24.51137909 200.39467124 -27.62849115 197.78515948 -31 195 C-39.4797427 187.97843447 -47.04653192 179.99477725 -54.75292969 172.15112305 C-56.557546 170.31649281 -58.36818085 168.4879795 -60.1796875 166.66015625 C-60.73486053 166.09152359 -61.29003357 165.52289093 -61.86203003 164.93702698 C-63.20386707 163.58637951 -64.59754741 162.28759541 -66 161 C-66.66 161 -67.32 161 -68 161 Z M-100 164 C-112.54 189.08 -125.08 214.16 -138 240 C-133.1685843 245.86491238 -133.1685843 245.86491238 -127 249 C-123.32630756 240.28071711 -120.32724627 231.34396909 -117.32421875 222.37890625 C-117.0618574 221.59747694 -116.79949604 220.81604763 -116.52918434 220.01093864 C-115.14603854 215.89125802 -113.76624015 211.77047523 -112.3894043 207.64868164 C-110.96728183 203.39337097 -109.53402332 199.14189746 -108.0982542 194.89117527 C-106.99334124 191.61358794 -105.89643115 188.33336381 -104.80173683 185.052351 C-104.27641259 183.48243566 -103.74808428 181.91352225 -103.21671104 180.345644 C-102.47803191 178.16357682 -101.7507092 175.97804001 -101.02612305 173.79125977 C-100.60960983 172.54901138 -100.19309662 171.306763 -99.76396179 170.02687073 C-98.70648888 166.98257769 -98.70648888 166.98257769 -100 164 Z M-73 164 C-65.89673131 179.2498557 -58.41094192 194.30236984 -50.86584473 209.3369751 C-49.29510417 212.46802592 -47.72677163 215.60028251 -46.15820312 218.73242188 C-43.10775185 224.82276024 -40.05474862 230.91181597 -37 237 C-36.01 237 -35.02 237 -34 237 C-32.25346337 234.95573483 -32.25346337 234.95573483 -30.75 232.3125 C-29.93789062 231.00732422 -29.93789062 231.00732422 -29.109375 229.67578125 C-27.73312065 226.35629453 -27.70993177 225.35222274 -29 222 C-30.75695036 219.14865164 -32.73896645 216.48858613 -34.75 213.8125 C-35.94160147 212.19545634 -37.13300216 210.5782647 -38.32421875 208.9609375 C-38.93571777 208.1369043 -39.5472168 207.31287109 -40.17724609 206.46386719 C-43.00317915 202.64397483 -45.78324245 198.79141505 -48.5625 194.9375 C-49.09383545 194.20289551 -49.6251709 193.46829102 -50.17260742 192.71142578 C-54.51471974 186.70008133 -58.79619166 180.64699262 -63.04321289 174.56811523 C-66.82547164 169.13223882 -66.82547164 169.13223882 -71 164 C-71.66 164 -72.32 164 -73 164 Z M-96 165 C-95 167 -95 167 -95 167 Z M-93 166 C-98.61 195.7 -104.22 225.4 -110 256 C-102.72760688 258.16169042 -102.72760688 258.16169042 -98 258 C-97.08415497 253.94996788 -96.7111026 249.98602479 -96.42749023 245.84570312 C-96.37857635 245.14409058 -96.32966248 244.44247803 -96.27926636 243.71960449 C-96.11900645 241.40703719 -95.96359753 239.09417513 -95.80859375 236.78125 C-95.69808249 235.16043011 -95.58740782 233.53962136 -95.47657776 231.91882324 C-95.24494937 228.51959548 -95.0158129 225.12021074 -94.78833008 221.72070312 C-94.49880523 217.39804864 -94.20239063 213.07589941 -93.90394497 208.75385284 C-93.67347498 205.40283864 -93.44715321 202.05155339 -93.22197151 198.70018005 C-93.11448408 197.10874816 -93.00566844 195.51740533 -92.89541435 193.92616272 C-92.25159168 184.60117381 -91.84431741 175.35448763 -92 166 C-92.33 166 -92.66 166 -93 166 Z M-76 166 C-74.32447045 174.77196273 -71.42883706 183.11264819 -68.58984375 191.55859375 C-68.0566609 193.15507996 -67.52383492 194.75168539 -66.99134827 196.34840393 C-65.88035708 199.67679762 -64.76644395 203.00419282 -63.65014648 206.33081055 C-62.21798214 210.59887098 -60.79111426 214.8686778 -59.36614132 219.13914394 C-58.26855923 222.42774122 -57.16927979 225.71576886 -56.06936836 229.00358772 C-55.54239609 230.57880397 -55.01570605 232.15411467 -54.48930168 233.7295208 C-53.75607653 235.9223432 -53.0208246 238.11447473 -52.28491211 240.30639648 C-51.86680771 241.55388168 -51.44870331 242.80136688 -51.01792908 244.08665466 C-50.10709433 246.89177825 -50.10709433 246.89177825 -49 249 C-43.99081256 247.52670958 -41.48192278 244.72484762 -38 241 C-39.39422129 236.48297742 -41.20034485 232.30760889 -43.31640625 228.0925293 C-43.64510712 227.43001663 -43.97380798 226.76750397 -44.31246948 226.08491516 C-45.39171284 223.91261417 -46.47680338 221.74330081 -47.5625 219.57421875 C-48.31731456 218.0607007 -49.07195057 216.5470936 -49.82641602 215.03340149 C-51.40401838 211.87075399 -52.98469275 208.70966486 -54.56738281 205.54956055 C-56.59858035 201.49298406 -58.62060533 197.43191189 -60.64021301 193.36955547 C-62.19390949 190.24746706 -63.75310741 187.12815147 -65.31393433 184.00962257 C-66.06219577 182.51258523 -66.8085592 181.01459768 -67.55300903 179.51566124 C-68.59085002 177.42770208 -69.63618999 175.34367273 -70.68359375 173.26049805 C-70.99118622 172.63766937 -71.29877869 172.0148407 -71.61569214 171.37313843 C-73.16066977 168.0865025 -73.16066977 168.0865025 -76 166 Z M-97 167 C-100.54997952 177.48786708 -104.08866071 187.9794706 -107.61290073 198.476017 C-109.24964008 203.34967864 -110.89026716 208.22195893 -112.53979492 213.09130859 C-114.13103624 217.78906869 -115.71204335 222.49015793 -117.28596306 227.19374847 C-117.88874757 228.98915145 -118.49523215 230.78331649 -119.10544014 232.57621002 C-119.95840973 235.08443023 -120.79820888 237.59669904 -121.63500977 240.11035156 C-122.01910759 241.22489464 -122.01910759 241.22489464 -122.41096497 242.36195374 C-124.09627803 247.19946788 -124.09627803 247.19946788 -123 252 C-121.25871332 253.13359337 -121.25871332 253.13359337 -119.125 253.75 C-118.07699219 254.11351562 -118.07699219 254.11351562 -117.0078125 254.484375 C-114.86120862 255.12436901 -114.86120862 255.12436901 -112 255 C-110.50369199 247.4094274 -109.00812672 239.81870883 -107.51343155 232.22781849 C-106.81886871 228.70055784 -106.12407883 225.17334227 -105.42871094 221.64624023 C-103.85017524 213.6386616 -102.27698038 205.6300666 -100.71020508 197.62017822 C-100.05061522 194.25800453 -99.38435492 190.89721977 -98.71679688 187.53662109 C-98.34734442 185.65338146 -97.97818031 183.77008522 -97.609375 181.88671875 C-97.44262268 181.05775589 -97.27587036 180.22879303 -97.10406494 179.37471008 C-96.29045597 175.18071793 -95.8231707 171.29755277 -96 167 C-96.33 167 -96.66 167 -97 167 Z M-86 167 C-86.14819204 177.00859202 -85.68282742 186.95522611 -85.16015625 196.9453125 C-85.07273026 198.6497222 -84.98544743 200.35413926 -84.89830017 202.05856323 C-84.71627654 205.60360726 -84.5319065 209.1485197 -84.34594727 212.69335938 C-84.10763491 217.2415891 -83.87627689 221.7901435 -83.6467371 226.33882332 C-83.46883931 229.84587902 -83.28683064 233.35271222 -83.10360527 236.85949326 C-83.01649815 238.53800192 -82.93079468 240.21658403 -82.84651375 241.89523697 C-82.72883784 244.22874361 -82.60552312 246.56188513 -82.48071289 248.89501953 C-82.44690521 249.58898331 -82.41309753 250.28294708 -82.37826538 250.99794006 C-82.20645694 254.62116266 -82.20645694 254.62116266 -81 258 C-79.1746875 258.0309375 -79.1746875 258.0309375 -77.3125 258.0625 C-76.62800781 258.07410156 -75.94351563 258.08570313 -75.23828125 258.09765625 C-72.74524843 257.98888518 -70.4392824 257.51046532 -68 257 C-71.11456049 239.4596201 -74.24433805 221.92200625 -77.39221191 204.38757324 C-77.93929888 201.33832434 -78.48497896 198.28882764 -79.03027344 195.23925781 C-79.72328066 191.36878298 -80.42402785 187.49981741 -81.13348389 183.63232422 C-81.49346733 181.66077793 -81.84568337 179.68781846 -82.19775391 177.71484375 C-82.41093262 176.56371094 -82.62411133 175.41257813 -82.84375 174.2265625 C-83.02099609 173.25283691 -83.19824219 172.27911133 -83.38085938 171.27587891 C-83.84578286 168.82309007 -83.84578286 168.82309007 -86 167 Z M-82 167 C-80.58703259 177.66461287 -78.73660698 188.20568608 -76.7421875 198.7734375 C-76.43090104 200.43489773 -76.11988098 202.09640789 -75.80911255 203.75796509 C-74.99965089 208.08196055 -74.18662896 212.40527877 -73.37280273 216.72845459 C-72.53930568 221.15970348 -71.7092617 225.59159904 -70.87890625 230.0234375 C-69.25593757 238.68291964 -67.62919813 247.34168771 -66 256 C-60.55432314 254.97137215 -55.88182883 253.75385216 -51 251 C-57.63022609 230.40449701 -64.35089709 209.84048625 -71.1875 189.3125 C-71.52073273 188.31030426 -71.85396545 187.30810852 -72.19729614 186.27554321 C-73.1441253 183.4292095 -74.09313006 180.58361188 -75.04296875 177.73828125 C-75.32786163 176.88161865 -75.61275452 176.02495605 -75.90628052 175.14233398 C-77.26201748 170.994583 -77.26201748 170.994583 -79 167 C-79.99 167 -80.98 167 -82 167 Z M-89 174 C-90.44269774 176.88539549 -90.35222457 179.5671155 -90.57250977 182.78540039 C-90.62142365 183.48324646 -90.67033752 184.18109253 -90.72073364 184.90008545 C-90.88188368 187.21567061 -91.03678047 189.53162695 -91.19140625 191.84765625 C-91.30179144 193.45993482 -91.41246756 195.0721935 -91.52342224 196.68443298 C-91.75555682 200.07126323 -91.98470253 203.45827863 -92.21166992 206.84545898 C-92.50143533 211.16745578 -92.7976571 215.48897922 -93.09605503 219.81038761 C-93.32572945 223.14499861 -93.55234633 226.479812 -93.77802849 229.81469536 C-93.88603811 231.40660686 -93.99487622 232.99846239 -94.10458565 234.59025764 C-94.64091092 242.39977307 -95.15016546 250.16646066 -95 258 C-91.37 258 -87.74 258 -84 258 C-84.67099087 239.11425693 -85.5647268 220.24608262 -86.5625 201.375 C-86.70284059 198.69923789 -86.84263669 196.02344742 -86.98242188 193.34765625 C-87.3197436 186.89833823 -87.65904171 180.44912673 -88 174 C-88.33 174 -88.66 174 -89 174 Z"/>
<path class="f" transform="translate(569,14)" d="M0 0 C19.84680809 -0.06799838 39.69352032 -0.12314442 59.54041576 -0.15543652 C68.75786224 -0.17083587 77.97523063 -0.19179097 87.19262695 -0.22631836 C95.23642975 -0.25643496 103.28017594 -0.27562521 111.32403356 -0.28226548 C115.57419403 -0.28614049 119.82419271 -0.29509823 124.07430077 -0.31719017 C166.21010296 -0.52770458 166.21010296 -0.52770458 186.625 5.625 C187.90201782 6.00241333 187.90201782 6.00241333 189.20483398 6.38745117 C203.52243667 10.82756131 216.57170475 17.24537521 228 27 C228.89203125 27.75410156 229.7840625 28.50820313 230.703125 29.28515625 C255.55602082 50.97563269 265.91986895 80.86665385 269 113 C269.47393048 120.72214151 269.42459173 128.45409678 269.3984375 136.1875 C269.40046728 138.34920347 269.40338614 140.51090625 269.40713501 142.67260742 C269.41151594 147.16689683 269.40526573 151.66100535 269.39111328 156.15527344 C269.37402423 161.85304678 269.38388843 167.55039582 269.40183067 173.24815369 C269.41278417 177.70116243 269.4091698 182.15407417 269.4014473 186.60708618 C269.39947706 188.70537367 269.40178962 190.80367061 269.40888596 192.90194702 C269.50377786 228.82379124 262.49909967 263.58108212 238 291 C237.46246094 291.62003906 236.92492187 292.24007813 236.37109375 292.87890625 C214.58292664 316.41449528 179.81312145 325.16099651 149 327 C143.98639499 327.12910875 138.97481478 327.12721581 133.95996094 327.11352539 C132.49022931 327.11324262 131.02049754 327.11340301 129.55076599 327.1139679 C125.59911062 327.11425235 121.64748621 327.10841293 117.69583797 327.10139394 C113.55188597 327.09510142 109.40793309 327.09455197 105.26397705 327.09336853 C97.43389954 327.09027249 89.60383616 327.08208259 81.77376485 327.07201904 C72.8522556 327.060804 63.93074564 327.05533392 55.00923109 327.05032361 C36.67281112 327.03989837 18.33641048 327.02157459 0 327 C0 308.85 0 290.7 0 272 C14.19 272 28.38 272 43 272 C43 200.39 43 128.78 43 55 C28.81 55 14.62 55 0 55 C0 36.85 0 18.7 0 0 Z M105 56 C105 126.62 105 197.24 105 270 C150.8499367 271.77260868 150.8499367 271.77260868 188.95703125 252.26953125 C202.63280677 238.28504748 207.15673824 216.35055233 207.14526367 197.51123047 C207.14862228 196.70349686 207.1519809 195.89576324 207.15544128 195.06355286 C207.16487575 192.41474839 207.16689086 189.76600769 207.16796875 187.1171875 C207.17118746 185.25643896 207.17455198 183.39569066 207.17805481 181.53494263 C207.18402802 177.63982559 207.18589666 173.74473067 207.18530273 169.84960938 C207.18520143 164.8940846 207.19882904 159.93870412 207.21607494 154.98321342 C207.22727631 151.13955045 207.22921943 147.29592142 207.22869301 143.4522438 C207.22986185 141.62727488 207.23422091 139.80230475 207.24202538 137.97735214 C207.33194497 114.77239058 204.92601151 91.39260441 188.3125 73.6875 C165.62526419 52.36902653 133.99298169 56 105 56 Z"/>
<path class="f" transform="translate(1,14)" d="M0 0 C168.91944635 0 168.91944635 0 185.25 5.75 C185.99467529 6.00749023 186.73935059 6.26498047 187.5065918 6.53027344 C208.7742374 14.14921711 226.51952147 28.46448477 236.44140625 48.98046875 C246.65874974 72.55660761 248.03926877 102.18492731 238.75 126.3125 C230.94453623 143.34677681 218.49097451 156.17924619 202 165 C200.01841034 165.7195463 198.02252006 166.40514116 196 167 C196 169.64 196 172.28 196 175 C196.61746094 175.02578125 197.23492187 175.0515625 197.87109375 175.078125 C208.77091851 175.80809804 217.30099157 180.14979339 224.9140625 187.96484375 C234.06400768 198.73063031 235.16072962 211.62506932 235.11352539 225.16772461 C235.11367142 226.27090027 235.11381744 227.37407593 235.1139679 228.51068115 C235.11327365 232.14125566 235.10550411 235.77177826 235.09765625 239.40234375 C235.09579034 241.92582674 235.09436725 244.4493101 235.09336853 246.97279358 C235.08994616 252.9259929 235.08207214 258.87917569 235.07201904 264.83236653 C235.05775028 273.47060878 235.05253744 282.10885738 235.04621124 290.74710846 C235.03652589 302.83142095 235.01735975 314.91568512 235 327 C214.21 327 193.42 327 172 327 C171.98582031 319.46414063 171.97164062 311.92828125 171.95703125 304.1640625 C171.93696511 299.37885976 171.91543895 294.59375225 171.88867188 289.80859375 C171.84636068 282.21985162 171.80934257 274.631351 171.80444336 267.04248047 C171.80015273 260.92143854 171.77162537 254.80093797 171.72656822 248.68006516 C171.71361786 246.34943169 171.70927676 244.01873336 171.71384621 241.68806839 C171.71876942 238.41336466 171.69258109 235.14023272 171.65942383 231.86572266 C171.66804947 230.91049713 171.67667511 229.95527161 171.68556213 228.97109985 C171.55121166 221.01202885 169.18731553 214.26904156 163.5625 208.5 C157.70612006 205.07187516 152.38851417 204.69804231 145.78173828 204.68115234 C144.39790357 204.66592246 144.39790357 204.66592246 142.98611259 204.6503849 C140.01418296 204.61986769 137.04234854 204.60262665 134.0703125 204.5859375 C132.22972803 204.56899369 130.38915139 204.55117603 128.54858398 204.5324707 C121.74081249 204.4693965 114.93289295 204.42321486 108.125 204.375 C85.293125 204.189375 85.293125 204.189375 62 204 C62 244.59 62 285.18 62 327 C41.54 327 21.08 327 0 327 C0 219.09 0 111.18 0 0 Z M62 56 C62 86.03 62 116.06 62 147 C81.92375 147.0928125 81.92375 147.0928125 102.25 147.1875 C108.50759277 147.22846802 108.50759277 147.22846802 114.89160156 147.27026367 C118.67818845 147.28030582 118.67818845 147.28030582 122.46478271 147.28633118 C124.13261324 147.29089468 125.80043476 147.30135461 127.46820068 147.31672668 C143.96190588 147.46096196 158.37404372 145.98969003 170.890625 134.25 C179.9378705 124.5996048 182.68431491 112.07290726 182.28515625 99.07421875 C181.39911772 89.52199519 179.42718835 80.98621071 174 73 C173.443125 72.13375 172.88625 71.2675 172.3125 70.375 C161.58034202 59.35278369 148.11629254 56.25373699 133.20831299 55.91345215 C128.67790824 55.87190102 124.14769087 55.88717485 119.6171875 55.90234375 C118.1381026 55.90381725 116.65901717 55.90483544 115.17993164 55.90539551 C109.74494638 55.91060116 104.30997235 55.92456232 98.875 55.9375 C80.621875 55.9684375 80.621875 55.9684375 62 56 Z"/>
<path class="f" transform="translate(260,14)" d="M0 0 C23.1 0 46.2 0 70 0 C74.888125 9.755625 79.77625 19.51125 84.8125 29.5625 C86.33077393 32.58994385 87.84904785 35.6173877 89.41333008 38.73657227 C95.68975057 51.26800855 101.91361367 63.81497281 107.91921997 76.47915649 C113.52929592 88.27563678 119.41250104 99.93747875 125.27148438 111.6116333 C126.82902125 114.71622522 128.38411304 117.8220415 129.93945312 120.92773438 C132.95733639 126.95297663 135.97777488 132.97693446 139 139 C141.31 139 143.62 139 146 139 C148.22249944 134.58044809 150.44191619 130.15936403 152.65893555 125.73706055 C153.40751526 124.24481243 154.1568212 122.75292832 154.90698242 121.26147461 C159.45826847 112.21121615 163.91323675 103.12220371 168.26171875 93.97265625 C174.85729639 80.10803475 181.7660859 66.40340137 188.66601562 52.68847656 C190.3208008 49.39737913 191.97367223 46.10533352 193.625 42.8125 C194.15971924 41.74628418 194.69443848 40.68006836 195.24536133 39.58154297 C199.4030206 31.26115643 203.44144865 22.88738141 207.39892578 14.4699707 C208.02323486 13.14872192 208.02323486 13.14872192 208.66015625 11.80078125 C209.19588257 10.65863159 209.19588257 10.65863159 209.74243164 9.4934082 C211.37140712 6.26360301 213.20529307 3.14073713 215 0 C237.77 0 260.54 0 284 0 C282.73265956 3.80202131 281.6891425 6.86856735 279.91210938 10.3269043 C279.50408081 11.1260173 279.09605225 11.92513031 278.67565918 12.74845886 C278.23612915 13.59845963 277.79659912 14.44846039 277.34375 15.32421875 C276.65110046 16.67553642 276.65110046 16.67553642 275.94445801 18.05415344 C274.46693262 20.93398977 272.98345263 23.81071327 271.5 26.6875 C270.53348663 28.57077496 269.56733756 30.45423694 268.6015625 32.33789062 C263.64244409 41.99797234 258.6317331 51.62933203 253.56246948 61.23204041 C249.88424228 68.20415358 246.26734417 75.20680887 242.66741943 82.21960449 C240.83792995 85.7830331 239.00507217 89.34472769 237.171875 92.90625 C236.62990982 93.95918243 236.62990982 93.95918243 236.07699585 95.03338623 C232.56158902 101.85872989 229.01112985 108.66553193 225.453125 115.46875 C221.48934863 123.05162653 217.55356225 130.64883884 213.625 138.25 C213.30884735 138.8616803 212.9926947 139.4733606 212.66696167 140.10357666 C212.3507486 140.71537781 212.03453552 141.32717896 211.70874023 141.95751953 C211.0701538 143.19303595 210.43156331 144.42855028 209.79296875 145.6640625 C209.47666 146.27605499 209.16035126 146.88804749 208.8344574 147.51858521 C204.97131962 154.99179549 201.09876529 162.46012262 197.22387695 169.92724609 C194.51107741 175.15524192 191.80025092 180.38422357 189.09757996 185.61746216 C187.81286517 188.10483122 186.52696973 190.59158905 185.24099731 193.07830811 C184.33587265 194.82977268 183.43244011 196.58211138 182.52905273 198.33447266 C181.97934814 199.39714355 181.42964355 200.45981445 180.86328125 201.5546875 C180.38157471 202.48780762 179.89986816 203.42092773 179.40356445 204.38232422 C178 207 178 207 176.43930054 208.96833801 C174.24109253 213.59852016 174.5607534 218.05990544 174.56762695 223.12426758 C174.5574353 224.24665833 174.54724365 225.36904907 174.53674316 226.52545166 C174.50657167 230.23186203 174.49734057 233.93801412 174.48828125 237.64453125 C174.47143771 240.21572227 174.45328791 242.78690503 174.43388367 245.358078 C174.3912006 251.4317383 174.36168345 257.50533159 174.33856028 263.57909364 C174.30883581 271.17456066 174.258946 278.76987812 174.20898438 286.36523438 C174.1199762 299.91011088 174.06142419 313.45490796 174 327 C153.21 327 132.42 327 111 327 C111.10183594 319.10707031 111.20367187 311.21414063 111.30859375 303.08203125 C111.33971013 298.01862343 111.36629225 292.95597043 111.37695312 287.89257812 C111.394218 279.89169553 111.42635248 271.89381301 111.55883789 263.89379883 C112.9298037 223.17125256 112.9298037 223.17125256 96.95231628 186.8692627 C93.40935511 181.66227528 90.74506048 176.00373476 87.9375 170.375 C86.78350576 168.14138741 85.62638992 165.90938218 84.46484375 163.6796875 C80.97578411 156.95352852 77.4878116 150.22680621 74 143.5 C72.83333808 141.24999754 71.66667142 138.99999754 70.5 136.75 C35.5 69.25 35.5 69.25 33.74926758 65.87353516 C32.58509935 63.62838839 31.42087429 61.3832711 30.2565918 59.13818359 C27.30122713 53.43917201 24.34691779 47.73961754 21.39453125 42.0390625 C20.20056396 39.73435266 19.006554 37.42966492 17.8125 35.125 C17.23741699 34.01463379 16.66233398 32.90426758 16.06982422 31.76025391 C13.28595155 26.38994072 10.49221535 21.02519224 7.67578125 15.671875 C7.15975342 14.6907373 6.64372559 13.70959961 6.11206055 12.69873047 C5.14278379 10.85820265 4.17168059 9.01863519 3.19848633 7.18017578 C2.77462646 6.37563965 2.3507666 5.57110352 1.9140625 4.7421875 C1.5423291 4.0394873 1.1705957 3.33678711 0.78759766 2.61279297 C0 1 0 1 0 0 Z"/>
</svg>